<svg xmlns="http://www.w3.org/2000/svg" width="55" height="56" viewBox="0 0 55 56"><defs><style>.a{fill:#34322c;}.b{fill:none;stroke:#fafe2f;stroke-width:1.5px;}</style></defs><g transform="translate(-16 -468)"><g transform="translate(0 298)"><rect class="a" width="55" height="56" rx="12" transform="translate(16 170)"/></g><path class="b" d="M21.789,6.821H18.947V3.964A1.588,1.588,0,0,0,17.526,2.25H1.421A1.588,1.588,0,0,0,0,3.964V32.536A1.588,1.588,0,0,0,1.421,34.25H17.526a1.588,1.588,0,0,0,1.421-1.714V29.528l4.773-2.57a5.875,5.875,0,0,0,2.806-5.218v-9.2C26.526,9.385,24.4,6.821,21.789,6.821Zm.947,14.919a1.175,1.175,0,0,1-.561,1.044l-3.228,1.738V11.393h2.842a1.06,1.06,0,0,1,.947,1.143ZM12.316,27.393a1.059,1.059,0,0,1-.947-1.143v-16a1.059,1.059,0,0,1,.947-1.143,1.059,1.059,0,0,1,.947,1.143v16A1.059,1.059,0,0,1,12.316,27.393Zm-5.684,0a1.059,1.059,0,0,1-.947-1.143v-16a1.059,1.059,0,0,1,.947-1.143,1.059,1.059,0,0,1,.947,1.143v16A1.059,1.059,0,0,1,6.632,27.393Z" transform="translate(30 477.75)"/></g></svg>