<svg xmlns="http://www.w3.org/2000/svg" xmlns:xlink="http://www.w3.org/1999/xlink" width="264" height="107" viewBox="0 0 264 107"><defs><style>.a,.b{fill:#ffa200;}.b{font-size:30px;font-family:ArchivoBlack-Regular, Archivo Black;}.c{fill:#34322c;}.d{clip-path:url(#a);}</style><clipPath id="a"><path class="a" d="M70.7,20.3a.967.967,0,0,0-1.4,0l-4,4a.967.967,0,0,0,0,1.4l.3.3-3.8,3.8A13.567,13.567,0,0,0,55,28c-4.6,0-8.1,3.3-9.8,5.3L21.9,59.4a3.689,3.689,0,0,0,.1,5L35.4,77.8a3.864,3.864,0,0,0,2.7,1.1,3.583,3.583,0,0,0,2.4-.9L67.1,55.2c3.3-2.8,4.8-5.8,4.8-9.3v-1a13.567,13.567,0,0,0-1.8-6.8l3.8-3.8.3.3a.967.967,0,0,0,1.4,0l4-4a.967.967,0,0,0,0-1.4Zm-2.4,17a.91.91,0,0,0-.1,1.2A12.6,12.6,0,0,1,70.1,45v1c0,2.9-1.4,5.4-4.1,7.8L39.3,76.6a1.724,1.724,0,0,1-2.4-.1L23.5,63.1a1.694,1.694,0,0,1-.1-2.3L46.7,34.7c1.5-1.7,4.5-4.6,8.3-4.6A11.726,11.726,0,0,1,61.5,32a1.048,1.048,0,0,0,1.2-.1L67,27.6l5.6,5.6ZM75,32.6l-.3-.3-7-7-.3-.3L70,22.4,77.6,30Z" transform="translate(99.108 334)"/></clipPath></defs><g transform="translate(-60 -161)"><text class="b" transform="translate(60 228)"><tspan x="0" y="26">drinks &amp; stories</tspan></text><g transform="translate(13 -122)"><path class="c" d="M57,36a6.594,6.594,0,0,0-4,1.5,2.7,2.7,0,0,0-.7.8h0l-20,20a1.08,1.08,0,0,0-.3.7,5.2,5.2,0,0,0,1.4,3.2l-1.1,1.1a.908.908,0,0,0-.3.7c0,1.9,1.2,5,9,5a.908.908,0,0,0,.7-.3l19-19a4.74,4.74,0,0,0,1-1h0c.1-.1.2-.2.2-.3A8.181,8.181,0,0,0,63,44C63,40,60.9,36,57,36Zm-6,6.4a4.855,4.855,0,0,0,1.3,3.1,5.038,5.038,0,0,0,2.5,1.3L53,48.6a3.232,3.232,0,0,1-2.1-1.9,1.057,1.057,0,0,0-.7-.6.806.806,0,0,0-.9.3L34.8,60.8a2.54,2.54,0,0,1-.8-1.4ZM40.6,67c-3.9-.1-6.2-1-6.6-2.6L49.7,48.7a5.545,5.545,0,0,0,3.2,2h.2A12.921,12.921,0,0,0,56,51h.6ZM60.2,47.4l-.8.8A5.532,5.532,0,0,1,56,49h-.6l2.3-2.3a.913.913,0,0,0,.2-1.1,1.1,1.1,0,0,0-1-.6,4.86,4.86,0,0,1-3.2-1,2.629,2.629,0,0,1-.8-2,4.028,4.028,0,0,1,1.3-3,4.49,4.49,0,0,1,2.7-1c2.9,0,4,3.7,4,6A4.95,4.95,0,0,1,60.2,47.4Z" transform="translate(124.49 264)"/></g><g class="d" transform="translate(39 -193)"><rect class="a" width="375" height="667"/></g></g></svg>