<svg xmlns="http://www.w3.org/2000/svg" width="20" height="20" viewBox="0 0 20 20"><defs><style>.a{fill:#ffa200;}</style></defs><path class="a" d="M22.388,18h0l-6.067-6.067,6.067-6.067h0a.626.626,0,0,0,0-.884L19.522,2.111a.627.627,0,0,0-.884,0h0L12.571,8.178,6.5,2.111h0a.627.627,0,0,0-.884,0L2.753,4.977a.626.626,0,0,0,0,.884h0l6.067,6.067L2.753,18h0a.626.626,0,0,0,0,.884L5.62,21.745a.626.626,0,0,0,.884,0h0l6.067-6.067,6.067,6.067h0a.626.626,0,0,0,.884,0l2.866-2.866a.626.626,0,0,0,0-.884Z" transform="translate(-2.571 -1.928)"/></svg>