<svg xmlns="http://www.w3.org/2000/svg" width="55" height="56" viewBox="0 0 55 56"><defs><style>.a{fill:#34322c;}.b{fill:none;stroke:#ffa229;stroke-width:1.5px;}</style></defs><g transform="translate(-235 -468)"><g transform="translate(143 6)"><g transform="translate(76 292)"><rect class="a" width="55" height="56" rx="12" transform="translate(16 170)"/></g></g><path class="b" d="M18.622,30.813H15.1V22.5l10.616-11.2a1.648,1.648,0,0,0-1.1-2.792H1.553a1.648,1.648,0,0,0-1.1,2.792L11.072,22.5v8.315H7.549a2.589,2.589,0,0,0-2.516,2.656.518.518,0,0,0,.5.531h15.1a.518.518,0,0,0,.5-.531A2.589,2.589,0,0,0,18.622,30.813ZM27.178,0a9.081,9.081,0,0,0-8.5,6.375h3.305a5.973,5.973,0,0,1,5.2-3.187,6.221,6.221,0,0,1,6.039,6.375,6.221,6.221,0,0,1-6.039,6.375,5.72,5.72,0,0,1-2.474-.574l-2.218,2.341a8.631,8.631,0,0,0,4.692,1.42,9.321,9.321,0,0,0,9.059-9.562A9.321,9.321,0,0,0,27.178,0Z" transform="translate(246 479)"/></g></svg>