<svg xmlns="http://www.w3.org/2000/svg" width="55" height="56" viewBox="0 0 55 56"><defs><style>.a{fill:#34322c;}.b{fill:none;stroke:#12fe69;stroke-width:1.5px;}</style></defs><g transform="translate(-92 -462)"><g transform="translate(76 292)"><rect class="a" width="55" height="56" rx="12" transform="translate(16 170)"/></g><path class="b" d="M10.285,21.107H20.57a5.144,5.144,0,0,0,5.143-5.143h1.714a6.857,6.857,0,1,0,0-13.714h-21A1.283,1.283,0,0,0,5.142,3.536V15.964A5.144,5.144,0,0,0,10.285,21.107ZM27.428,5.679a3.429,3.429,0,1,1,0,6.857H25.713V5.679ZM29.983,26.25H2.587c-2.55,0-3.268-3.429-1.929-3.429H31.906c1.339,0,.632,3.429-1.923,3.429Z" transform="translate(102.004 475.75)"/></g></svg>