<svg xmlns="http://www.w3.org/2000/svg" width="38.734" height="20.609" viewBox="0 0 38.734 20.609"><defs><style>.a{fill:#fffdfd;}</style></defs><path class="a" d="M9.205,15.779c-.212-.779-.472-2.138-.472-2.138H8.7S8.443,15,8.231,15.779l-.672,2.415H9.865ZM37.282,6.75H20.336V27.359H37.282a1.5,1.5,0,0,0,1.453-1.546V8.3A1.5,1.5,0,0,0,37.282,6.75Zm-1.453,7.729a.753.753,0,0,1-.726.773h-.69a11.7,11.7,0,0,1-2.584,4.5,18.773,18.773,0,0,0,1.58,1.159.8.8,0,0,1,.248,1.043l-.478.9a.7.7,0,0,1-1.011.277,21.105,21.105,0,0,1-2.142-1.6,21.392,21.392,0,0,1-2.142,1.6.7.7,0,0,1-1.011-.277l-.478-.9a.8.8,0,0,1,.254-1.043,17.275,17.275,0,0,0,1.58-1.159A14.8,14.8,0,0,1,26.957,18.1a.8.8,0,0,1,.224-1.1l.393-.251.442-.277a.7.7,0,0,1,.968.219,12.142,12.142,0,0,0,1.053,1.346,9.893,9.893,0,0,0,1.816-2.782H24.935a.753.753,0,0,1-.726-.773v-1.03a.753.753,0,0,1,.726-.773h3.873v-1.03a.753.753,0,0,1,.726-.773H30.5a.753.753,0,0,1,.726.773v1.03H35.1a.753.753,0,0,1,.726.773ZM0,8.3V25.814a1.5,1.5,0,0,0,1.453,1.546H18.4V6.75H1.453A1.5,1.5,0,0,0,0,8.3ZM3.565,22.213l3.48-10.891a.728.728,0,0,1,.69-.522H9.7a.742.742,0,0,1,.69.522l3.48,10.891a.769.769,0,0,1-.69,1.024H11.8a.734.734,0,0,1-.7-.554l-.569-2.054H6.887l-.551,2.048a.74.74,0,0,1-.7.56H4.255a.772.772,0,0,1-.69-1.024Z" transform="translate(0 -6.75)"/></svg>