<svg xmlns="http://www.w3.org/2000/svg" width="25.3" height="22.802" viewBox="0 0 25.3 22.802"><defs><style>.a{fill:none;stroke:#ddd;stroke-width:1.3px;}</style></defs><path class="a" d="M22.821,16.711a3.959,3.959,0,0,0-2.7,1.025l-10.1-4.525a3.017,3.017,0,0,0,0-1.064l10.1-4.525a3.959,3.959,0,0,0,2.7,1.025,3.571,3.571,0,0,0,3.75-3.36,3.571,3.571,0,0,0-3.75-3.36,3.571,3.571,0,0,0-3.75,3.36,3.039,3.039,0,0,0,.047.532l-10.1,4.525a3.959,3.959,0,0,0-2.7-1.025,3.571,3.571,0,0,0-3.75,3.36,3.571,3.571,0,0,0,3.75,3.36,3.959,3.959,0,0,0,2.7-1.025l10.1,4.525a3.039,3.039,0,0,0-.047.532,3.571,3.571,0,0,0,3.75,3.36,3.571,3.571,0,0,0,3.75-3.36,3.571,3.571,0,0,0-3.75-3.36Z" transform="translate(-1.921 -1.278)"/></svg>