<svg xmlns="http://www.w3.org/2000/svg" width="30" height="30" viewBox="0 0 30 30"><defs><style>.a{fill:#fffdfd;}</style></defs><path class="a" d="M26.678,0H3.321L0,5.314V30H30V5.314ZM4.3,1.758H25.7l2.538,4.061v12.4H26.484v-.7l-1.777-3.472V7.458H19.434v6.593l-.9,1.755-.9-1.755V7.458H12.363v6.593l-.9,1.755-.9-1.755V7.458H5.293v6.593L3.516,17.524v.7H1.758V5.818Zm4.513,9.216H7.051V9.216H8.809Zm-1.758,3.5V12.732H8.809v1.744l1.777,3.472v.275H5.273v-.275Zm7.07,0V12.732h1.758v1.744l1.777,3.472v.275H12.344v-.275Zm1.758-3.5H14.121V9.216h1.758Zm5.313,3.5V12.732h1.758v1.744l1.777,3.472v.275H19.414v-.275Zm1.758-3.5H21.191V9.216h1.758ZM1.758,28.242V19.98H28.242v8.262Z" transform="translate(0)"/></svg>