<svg xmlns="http://www.w3.org/2000/svg" width="24.082" height="26.5" viewBox="0 0 24.082 26.5"><defs><style>.a{fill:none;stroke:#ddd;stroke-width:1.5px;}</style></defs><g transform="translate(-66.254 -621.25)"><path class="a" d="M9.63,16.862l-.961-.889C5.254,12.827,3,10.745,3,8.205A3.636,3.636,0,0,1,6.647,4.5,3.961,3.961,0,0,1,9.63,5.9a3.961,3.961,0,0,1,2.984-1.4A3.636,3.636,0,0,1,16.26,8.205c0,2.54-2.254,4.621-5.669,7.767Z" transform="translate(68.753 623.93)"/><path class="a" d="M4.5,3,7,25.787A2.524,2.524,0,0,0,9.5,28H22a2.553,2.553,0,0,0,2.5-2.213L27,3H4.5M7.275,5.5Z" transform="translate(62.5 619)"/></g></svg>