<svg xmlns="http://www.w3.org/2000/svg" width="20.069" height="34.5" viewBox="0 0 20.069 34.5"><defs><style>.a{fill:none;stroke:#f727d7;stroke-width:1.5px;}</style></defs><path class="a" d="M13.922,29.906H11.344V22.353a9.323,9.323,0,0,0,7.18-9.936L17.5.938A1.022,1.022,0,0,0,16.483,0H2.079A1.022,1.022,0,0,0,1.067.938L.039,12.418a9.323,9.323,0,0,0,7.18,9.936v7.553H4.641a2.578,2.578,0,0,0-2.578,2.578A.515.515,0,0,0,2.578,33H15.984a.515.515,0,0,0,.516-.516A2.578,2.578,0,0,0,13.922,29.906Z" transform="translate(0.753 0.75)"/></svg>