<svg xmlns="http://www.w3.org/2000/svg" width="55" height="56" viewBox="0 0 55 56"><defs><style>.a{fill:#34322c;}.b{fill:none;stroke:#f727d7;stroke-width:1.5px;}</style></defs><g transform="translate(-92 -462)"><g transform="translate(76 292)"><rect class="a" width="55" height="56" rx="12" transform="translate(16 170)"/></g><path class="b" d="M13.5,29H11V21.676a9.041,9.041,0,0,0,6.963-9.635l-1-11.131A.991.991,0,0,0,15.984,0H2.016a.991.991,0,0,0-.981.909l-1,11.132A9.041,9.041,0,0,0,7,21.676V29H4.5A2.5,2.5,0,0,0,2,31.5a.5.5,0,0,0,.5.5h13a.5.5,0,0,0,.5-.5A2.5,2.5,0,0,0,13.5,29Z" transform="translate(110 474)"/></g></svg>